# xmcd CD database file
#
# Track frame offsets:
#	150
#	9426
#	20657
#	36306
#	50798
#	67790
#	81186
#	91610
#	113424
#	127352
#	143920
#	158983
#	170768
#	181775
#	197506
#	212950
#	230247
#	243416
#
# Disc length: 3598 seconds
#
# Revision: 0
# Processed by: cddbd v1.4PL0 Copyright (c) Steve Scherf et al.
# Submitted via: Feurio! 1.61 - http://www.feurio.com
#
DISCID=fa0e0c12
DTITLE=Solid Soul - CD2
DYEAR=1900
DGENRE=
TTITLE0=Al Jarreau - Ain´t No Sunshine
TTITLE1=Lee Dorsey - Holy Cow
TTITLE2=Pecy Sledge - Bring It On Home To Me
TTITLE3=Betty Harris - Cry To Me
TTITLE4=The Temtations - Just My Imadination (Running Away With Me)
TTITLE5=Etta James - All I Could Do Was Cry
TTITLE6=Expressway To Your Heart
TTITLE7=Eddi Floyd - On A Saterday Night
TTITLE8=Wilson Pickett - It´s Too Late
TTITLE9=Solomon Burke - The More
TTITLE10=Sam and Dave - When Something Is Wrong With My Baby
TTITLE11=Gladys Knight and The Pips - Lovers Always Forgive
TTITLE12=Ben E. King - I Who Have Nothing
TTITLE13=The Chi-Lites - Oh Girl
TTITLE14=Ike and Tina Turner - I Know
TTITLE15=Nina Simone - Don´t Let Me Be Misunderstood
TTITLE16=Betty Swan - Make Me Yours
TTITLE17=James Brown - Georgia On My Mind
EXTD=
EXTT0=
EXTT1=
EXTT2=
EXTT3=
EXTT4=
EXTT5=
EXTT6=
EXTT7=
EXTT8=
EXTT9=
EXTT10=
EXTT11=
EXTT12=
EXTT13=
EXTT14=
EXTT15=
EXTT16=
EXTT17=
PLAYORDER=
